<svg width="116" height="115" viewBox="0 0 116 115" fill="none" xmlns="http://www.w3.org/2000/svg">
<g clip-path="url(#clip0)">
<path d="M57.4647 0C25.9785 0.205414 0.0256879 24.945 1.10856e-05 57.5096C-0.0192465 89.3874 25.0542 114.949 57.4198 115C89.5607 115.051 115.154 90.0357 115.071 57.3877C114.981 24.0528 88.4181 0.115546 57.4647 0ZM68.0564 14.18C71.4136 14.2378 74.3344 17.2484 74.283 20.5992C74.2381 24.0527 71.3494 26.9286 67.9729 26.89C64.2947 26.8515 61.4639 23.9436 61.6051 20.3425C61.7399 16.8697 64.6093 14.1287 68.0564 14.18ZM25.3173 42.8546C34.9205 35.6458 44.928 29.1496 56.6174 25.7603C56.8164 25.7025 57.041 25.7217 57.4968 25.6832C59.6857 25.94 61.6179 26.9093 62.1443 29.5027C62.6771 32.1153 61.8298 34.2914 59.23 35.2029C57.1309 35.9411 54.8842 36.4932 52.676 36.6215C44.652 37.0966 37.6743 40.4987 30.7287 44.0678C29.4962 44.6969 28.2509 45.3966 26.9286 45.7176C26.3316 45.8652 25.2917 45.3324 24.8937 44.7804C24.6241 44.4145 24.8937 43.1756 25.3173 42.8546ZM69.9629 94.3238C66.7597 94.4136 63.5373 91.3131 63.4474 88.0586C63.3575 84.8683 66.4901 81.6394 69.7382 81.5752C73.0505 81.5046 76.1061 84.4703 76.1895 87.8211C76.2665 91.1462 73.3201 94.221 69.9629 94.3238ZM86.4795 92.5392C84.2713 93.6562 83.6743 91.3067 82.8206 89.978C79.6623 85.0287 76.5747 80.0346 73.4678 75.0533C69.2696 68.3196 67.0229 66.0472 59.6793 61.2199C57.3427 64.4809 54.8778 67.6776 52.6952 71.0606C50.8979 73.8401 48.6897 74.5141 45.5892 73.6347C38.1943 71.5548 30.748 69.6355 23.3338 67.6327C22.6084 67.4401 21.7547 67.3438 21.2476 66.8881C20.6056 66.3104 19.7326 65.1998 19.9252 64.6927C20.2269 63.916 21.3374 62.9852 22.1334 62.9595C24.0271 62.9018 25.9528 63.2805 27.8465 63.5629C33.0204 64.3268 38.1943 65.065 43.3425 65.9701C45.3645 66.3232 46.3723 65.9059 47.1362 63.8197C48.6062 59.8205 50.3651 55.9177 52.2266 52.079C55.0575 46.2504 59.153 45.8909 63.717 50.6154C72.6076 59.8141 78.7508 70.7139 83.8476 82.307C84.7078 84.2584 85.6386 86.1778 86.5116 88.1228C87.1792 89.6121 88.7391 91.3902 86.4795 92.5392ZM94.1697 46.8217C85.9082 45.3709 77.3899 44.7611 69.9115 40.441C69.1091 39.9788 68.4608 38.5152 68.4801 37.5395C68.5314 35.4404 69.0642 33.3542 69.4815 30.748C70.4508 31.4092 71.2211 31.7686 71.7859 32.3335C77.2936 37.9311 84.2585 40.6464 91.6791 42.4951C92.8088 42.7776 94.0028 43.0536 94.9785 43.6442C95.6397 44.0421 95.9671 44.9858 96.4421 45.6855C95.6782 46.0899 94.8373 46.9436 94.1697 46.8217Z" fill="#BB86FC"/>
<path d="M59.6793 61.2199C57.3427 64.4809 54.8777 67.6776 52.6888 71.0605C50.8914 73.8401 48.6896 74.5141 45.5827 73.6411C38.1878 71.5548 30.7479 69.6355 23.3273 67.6391C22.6084 67.4465 21.7482 67.3502 21.2411 66.8881C20.6056 66.3103 19.7262 65.1998 19.9252 64.6927C20.2269 63.916 21.3374 62.9916 22.1334 62.9595C24.0335 62.8953 25.9528 63.274 27.8529 63.5565C33.0203 64.3268 38.2006 65.065 43.3488 65.9637C45.3645 66.3168 46.3787 65.8995 47.1426 63.8133C48.6126 59.8141 50.3714 55.9048 52.233 52.0725C55.0639 46.2439 59.1529 45.8844 63.7234 50.609C72.614 59.8077 78.7571 70.7139 83.854 82.3006C84.7142 84.252 85.6449 86.1713 86.5244 88.1228C87.192 89.612 88.7454 91.3901 86.4923 92.5392C84.2841 93.6625 83.6807 91.3067 82.8333 89.9779C79.6687 85.0287 76.581 80.0346 73.4741 75.0533C69.2696 68.3195 67.0228 66.0471 59.6793 61.2199Z" fill="white"/>
<path d="M57.4969 25.6832C59.6922 25.9336 61.618 26.9093 62.1444 29.4962C62.6772 32.1088 61.8298 34.285 59.2301 35.1965C57.131 35.9347 54.8843 36.4867 52.6761 36.6151C44.6521 37.0901 37.6744 40.4923 30.7288 44.0614C29.4963 44.6969 28.251 45.3902 26.9286 45.7111C26.3317 45.8588 25.2917 45.3196 24.8938 44.7739C24.6241 44.408 24.8938 43.1627 25.3174 42.8482C34.9205 35.6458 44.9281 29.1496 56.6174 25.7603C56.8164 25.7025 57.0411 25.7217 57.4969 25.6832Z" fill="white"/>
<path d="M69.4813 30.7479C70.4506 31.4027 71.2209 31.7686 71.7794 32.3335C77.2871 37.931 84.2519 40.6399 91.6725 42.4886C92.8023 42.7711 93.9962 43.0471 94.9784 43.6377C95.6396 44.0357 95.9605 44.9793 96.4355 45.6854C95.6781 46.0898 94.8372 46.9436 94.1696 46.8216C85.908 45.3644 77.3898 44.7546 69.9114 40.4345C69.1154 39.9723 68.4606 38.5152 68.4863 37.533C68.5313 35.4404 69.0641 33.3541 69.4813 30.7479Z" fill="white"/>
<path d="M69.9628 94.3237C66.7596 94.4136 63.5307 91.3196 63.4409 88.0586C63.351 84.8683 66.4836 81.6458 69.7317 81.5752C73.044 81.5046 76.1059 84.4703 76.183 87.8211C76.2664 91.1462 73.32 94.221 69.9628 94.3237Z" fill="white"/>
<path d="M74.2831 20.5992C74.2317 24.0591 71.3495 26.9285 67.973 26.89C64.2948 26.8515 61.4639 23.9436 61.6052 20.336C61.74 16.8632 64.6158 14.1222 68.0565 14.18C71.4137 14.2377 74.3344 17.2484 74.2831 20.5992Z" fill="white"/>
</g>
<defs>
<clipPath id="clip0">
<rect width="115.071" height="115" fill="white"/>
</clipPath>
</defs>
</svg>
