<svg width="115" height="115" viewBox="0 0 115 115" fill="none" xmlns="http://www.w3.org/2000/svg">
<g clip-path="url(#clip0)">
<path d="M59.6129 71.2379C58.3433 74.8158 57.3622 78.1949 55.9388 81.3817C55.0603 83.3502 53.8484 85.4405 52.207 86.7486C46.9555 90.9357 41.4924 94.8727 35.9588 98.6814C34.9009 99.4124 32.4899 99.7907 31.8295 99.1623C30.079 97.4952 32.0026 96.1038 33.1504 94.9753C37.4208 90.801 41.8772 86.8127 46.0322 82.5295C47.2569 81.2727 48.1097 79.3555 48.4559 77.605C49.3857 72.8986 49.8537 68.1088 50.6873 63.3831C51.7004 57.6059 55.7785 55.6117 60.7093 58.7344C66.198 62.2097 71.5008 65.9992 76.7138 69.8849C78.1693 70.9686 79.3555 72.7255 80.0993 74.4247C83.0489 81.1573 85.8061 87.9797 88.5697 94.7957C89.2493 96.4821 90.7113 98.5596 88.0759 99.7458C85.5239 100.894 84.7866 98.4378 83.8696 96.8989C80.4392 91.1216 77.2075 85.229 73.7001 79.503C72.8281 78.0795 71.3597 76.8035 69.8721 76.0084C66.6148 74.2644 63.178 72.8665 59.6129 71.2379Z" fill="white"/>
<path d="M89.1209 44.6086C86.7292 39.3443 85.2993 34.1826 87.0947 28.29C88.3643 24.1029 86.7356 20.0569 84.2798 16.5303C82.2472 13.6192 78.9257 12.5612 75.8544 13.5872C72.7958 14.6131 70.885 17.4536 71.0774 21.0957C71.3082 25.5713 73.1934 29.2967 76.6302 32.2077C77.5536 32.99 78.4769 33.7787 79.7272 34.8431C76.829 36.4076 74.5207 38.3889 71.9558 38.8185C69.5257 39.2161 66.8262 37.9786 64.2486 37.4656C65.5502 39.5175 67.0955 40.9538 68.6408 42.3772C71.6545 45.1601 72.379 45.2114 75.7133 42.685C77.9768 40.973 80.1889 39.2033 82.8114 37.1514C84.1259 40.4216 85.2544 43.2364 86.4984 46.3206C82.2985 46.6028 78.4897 47.0773 74.6938 47.0131C72.9818 46.9811 71.0197 46.2373 69.6411 45.1921C66.8454 43.0826 64.4153 40.4921 61.7479 38.1966C58.8881 35.7279 56.0347 35.7792 54.2073 38.1902C52.2516 40.7742 52.957 43.6981 56.2271 45.673C59.696 47.7634 63.1521 49.9499 66.8454 51.5657C69.0512 52.5275 71.7442 52.9892 74.1359 52.7647C78.1435 52.3993 82.0997 51.3862 86.0431 50.5141C90.9034 49.4369 91.1535 49.0778 89.1209 44.6086ZM82.5165 31.5216C80.8814 31.932 78.0473 30.6111 76.8803 29.1428C75.1747 26.9883 73.8795 24.0901 73.5781 21.3842C73.3857 19.6016 74.7964 16.8188 76.3289 15.9404C77.5215 15.2543 80.7275 16.2225 81.7534 17.4921C83.6642 19.8453 84.6325 22.9616 86.2098 26.2125C84.8441 28.3284 83.9848 31.1497 82.5165 31.5216Z" fill="white"/>
<path d="M67.1854 28.2579C67.1021 31.2331 64.2872 34.0095 61.3505 34.0159C58.1637 34.0223 55.4322 31.201 55.5219 27.995C55.6117 24.8852 58.2406 22.2626 61.2992 22.237C64.3193 22.2113 67.2688 25.225 67.1854 28.2579Z" fill="white"/>
<path d="M17.4857 66.7686C15.498 68.3395 14.4977 69.7245 13.273 69.9618C11.4264 70.3144 9.99005 69.141 9.95158 67.0507C9.91311 65.0245 11.1122 63.6395 13.0614 63.9088C14.3118 64.0819 15.4018 65.3579 17.4857 66.7686Z" fill="white"/>
<path d="M57.7469 -0.000646369C24.898 -0.193008 0 25.7565 0 57.4384C0.00641204 89.6718 25.5584 114.538 57.3557 114.999C88.9094 114.666 115.038 90.2553 114.955 57.3423C114.872 25.3013 90.1405 0.191715 57.7469 -0.000646369ZM61.2991 22.2299C64.3192 22.2107 67.2687 25.2243 67.1854 28.2572C67.102 31.2324 64.2871 34.0088 61.3504 34.0152C58.1572 34.0217 55.4321 31.2004 55.5219 27.9879C55.6052 24.8781 58.2406 22.2556 61.2991 22.2299ZM13.2793 69.9612C11.4327 70.3138 9.99638 69.1404 9.9579 67.0437C9.91302 65.0175 11.1185 63.6325 13.0677 63.9082C14.3117 64.0813 15.4017 65.3573 17.4856 66.768C15.5043 68.3389 14.4976 69.7239 13.2793 69.9612ZM88.0694 99.7451C85.511 100.893 84.78 98.437 83.8631 96.8982C80.4327 91.1209 77.201 85.2282 73.6936 79.4959C72.8216 78.0724 71.3532 76.8028 69.8656 76.0013C66.6147 74.2572 63.1779 72.8658 59.6128 71.2372C58.3432 74.8087 57.3557 78.1878 55.9323 81.3746C55.0538 83.3431 53.8483 85.4334 52.2004 86.7415C46.949 90.9285 41.4923 94.8655 35.9587 98.6743C34.9007 99.3989 32.4898 99.7836 31.823 99.1488C30.0789 97.4881 31.9961 96.0902 33.1438 94.9681C37.4143 90.7875 41.8706 86.8056 46.0321 82.5224C47.2503 81.2656 48.1096 79.3484 48.4558 77.5979C49.3856 72.8915 49.8536 68.1017 50.6872 63.376C51.7003 57.5987 55.7784 55.6046 60.7092 58.7273C66.1979 62.2026 71.5007 65.9921 76.7137 69.8778C78.1692 70.9678 79.349 72.7183 80.0928 74.4175C83.0424 81.1502 85.7995 87.9726 88.5631 94.7886C89.2428 96.475 90.7048 98.5589 88.0694 99.7451ZM86.0432 50.5134C82.0998 51.3855 78.1436 52.3986 74.136 52.7641C71.7444 52.9885 69.0513 52.5268 66.8456 51.565C63.1522 49.9492 59.6961 47.7627 56.2272 45.6723C52.9571 43.6974 52.2517 40.7735 54.2074 38.1895C56.0348 35.7786 58.8882 35.7273 61.748 38.1959C64.4154 40.4914 66.8456 43.0819 69.6412 45.1914C71.0198 46.2366 72.9819 46.9804 74.6939 47.0125C78.4898 47.0766 82.2986 46.6021 86.4985 46.32C85.2545 43.2358 84.126 40.4209 82.8115 37.1507C80.189 39.2026 77.9769 40.9723 75.7134 42.6843C72.3791 45.2107 71.6546 45.1594 68.6409 42.3765C67.0956 40.9531 65.5503 39.5168 64.2487 37.4649C66.8263 37.9779 69.5258 39.2154 71.9559 38.8179C74.5208 38.3883 76.8291 36.4069 79.7273 34.8424C78.477 33.778 77.5537 32.9893 76.6303 32.207C73.1935 29.296 71.3083 25.5706 71.0775 21.095C70.8851 17.4529 72.7959 14.6124 75.8545 13.5865C78.9258 12.5605 82.2473 13.6185 84.2799 16.5296C86.7357 20.0562 88.3644 24.1022 87.0948 28.2893C85.2994 34.182 86.7293 39.3437 89.121 44.6079C91.1536 49.0771 90.9035 49.4362 86.0432 50.5134Z" fill="#BB86FC"/>
<path d="M86.21 26.2124C84.8378 28.3284 83.985 31.1497 82.5102 31.5216C80.8816 31.9384 78.0475 30.6111 76.8805 29.1427C75.1749 26.9883 73.8796 24.0965 73.5783 21.3842C73.3795 19.608 74.7966 16.8188 76.3226 15.9403C77.5153 15.2543 80.7213 16.2225 81.7472 17.4921C83.6644 19.8517 84.6326 22.9615 86.21 26.2124Z" fill="#BB86FC"/>
</g>
<defs>
<clipPath id="clip0">
<rect width="114.955" height="115" fill="white"/>
</clipPath>
</defs>
</svg>
