<svg width="115" height="115" viewBox="0 0 115 115" fill="none" xmlns="http://www.w3.org/2000/svg">
<g clip-path="url(#clip0)">
<path d="M79.2681 74.8947C74.529 70.6174 69.899 66.1733 64.8522 62.2872C60.8121 59.1834 56.0603 61.4086 55.528 66.5581C54.9573 72.0538 54.8547 77.6137 54.8162 83.1479C54.797 85.418 54.0659 86.8545 52.3088 88.2396C47.0375 92.4015 41.8689 96.6916 36.8028 101.097C36.0781 101.726 36.1551 103.271 35.8601 104.387C36.9823 104.47 38.3418 105.015 39.1755 104.567C43.2155 102.405 47.185 100.097 51.0327 97.6151C57.2082 93.6263 63.2169 89.3683 69.4117 85.4052C72.0024 83.7443 74.9523 82.6605 77.5879 81.0573C78.8256 80.3006 79.6913 78.9347 80.8007 77.7676C80.1402 76.4915 79.9029 75.4718 79.2681 74.8947ZM64.7496 80.9355C65.1857 78.4922 65.4806 76.8698 65.8462 74.8113C67.3403 75.7027 68.4562 76.3696 69.9696 77.2802C68.2253 78.4986 66.885 79.4413 64.7496 80.9355Z" fill="white"/>
<path d="M55.2653 43.7543C53.1491 41.5932 49.9619 41.9459 47.4481 44.7034C45.6718 46.6593 43.9853 48.6857 42.2538 50.6801C41.9203 50.6352 41.5805 50.5967 41.2406 50.5518C40.4711 46.4092 38.932 42.2217 39.1372 38.1239C39.3488 33.7632 41.0931 29.4474 42.4398 25.1958C42.7732 24.1505 44.0109 23.0603 45.0818 22.6499C49.5964 20.9057 51.5972 14.8007 48.6602 10.9338C47.2814 9.12541 45.4538 8.11861 43.0554 8.97151C38.0983 10.7286 36.4182 17.4107 39.8298 21.3545C40.3556 21.9638 40.5416 23.2463 40.3172 24.0543C39.2526 27.8378 38.1048 31.6085 36.7837 35.3087C34.1545 42.6577 36.4887 49.8849 37.2647 57.1185C37.6751 60.9469 39.926 61.7742 43.0939 59.5554C46.762 56.9902 50.3275 54.2648 53.8417 51.4881C56.8172 49.1346 57.3366 45.8769 55.2653 43.7543ZM39.7272 16.7502C39.7785 13.9478 42.3821 10.8889 44.7035 11.0364C47.4161 11.216 47.6213 13.3514 47.8778 15.038C47.865 18.2957 46.095 20.6684 43.9275 20.694C41.7536 20.7197 39.6951 18.783 39.7272 16.7502Z" fill="white"/>
<path d="M60.5942 37.4762C65.1024 35.4626 69.3669 33.3271 73.7981 31.647C77.774 30.14 81.9167 29.0498 86.0401 27.9725C86.9827 27.7224 88.137 28.2803 89.1951 28.4662C88.5539 29.2935 88.0665 30.358 87.2457 30.9095C85.7451 31.9035 84.0842 32.7051 82.4104 33.3912C77.2482 35.5203 72.3937 38.1239 68.4242 42.1382C66.9878 43.5939 65.8848 43.6773 64.6214 41.8048C63.6211 40.3491 62.2038 39.182 60.5942 37.4762Z" fill="white"/>
<path d="M53.4119 27.7159C56.7594 27.6775 59.2155 29.9091 59.3373 33.1027C59.4656 36.3539 56.8684 38.9383 53.4889 38.9254C50.2056 38.9126 47.8008 36.5527 47.7751 33.3335C47.7495 30.0438 50.0516 27.7544 53.4119 27.7159Z" fill="white"/>
<path d="M74.1507 7.26562C74.465 9.63835 74.6894 11.3506 74.9652 13.4732C72.4642 13.2038 70.3865 13.0563 68.3408 12.7165C67.7636 12.6203 67.2827 11.9534 66.7568 11.5493C67.1416 11.1069 67.4366 10.4977 67.9175 10.2476C69.7708 9.27923 71.6818 8.43275 74.1507 7.26562Z" fill="white"/>
<path d="M57.6378 -0.000145655C24.612 -0.109163 -0.064247 25.8112 -0.00011944 57.5415C0.0704209 89.8747 25.5355 114.538 57.4646 115C89.2847 114.564 114.891 89.9709 114.955 57.5415C115.013 25.9715 90.6506 0.102458 57.6378 -0.000145655ZM67.9238 10.241C69.7707 9.27912 71.6817 8.42622 74.1506 7.26551C74.4648 9.63823 74.6893 11.3504 74.9714 13.4731C72.4641 13.2037 70.3863 13.0562 68.3471 12.7099C67.7635 12.6138 67.2825 11.9468 66.7567 11.5428C67.1415 11.1003 67.4364 10.4911 67.9238 10.241ZM59.3371 33.1025C59.4654 36.3474 56.8682 38.9381 53.4951 38.9253C50.2118 38.9061 47.8006 36.5526 47.7749 33.327C47.7493 30.0436 50.0515 27.7543 53.4117 27.7158C56.7592 27.6773 59.2153 29.909 59.3371 33.1025ZM36.7835 35.3085C38.1045 31.6083 39.2524 27.8376 40.3169 24.0541C40.5413 23.2461 40.3554 21.9636 39.8295 21.3543C36.4179 17.4105 38.0981 10.7284 43.0551 8.9713C45.4535 8.11841 47.2811 9.12521 48.6599 10.9336C51.5969 14.8005 49.5962 20.9054 45.0816 22.6497C44.0106 23.0601 42.773 24.1503 42.4395 25.1956C41.0928 29.4472 39.3486 33.763 39.1369 38.1237C38.9317 42.2215 40.4708 46.409 41.2403 50.5516C41.5802 50.5965 41.9201 50.635 42.2535 50.6799C43.985 48.6855 45.6715 46.6591 47.4479 44.7032C49.9617 41.9457 53.1488 41.593 55.265 43.7541C57.3364 45.8767 56.8169 49.1344 53.8414 51.4879C50.3272 54.2646 46.7617 56.99 43.0936 59.5551C39.9257 61.774 37.6748 60.9467 37.2644 57.1183C36.4885 49.8847 34.1542 42.6575 36.7835 35.3085ZM77.5878 81.0571C74.9522 82.6603 72.0023 83.7441 69.4116 85.405C63.2169 89.3681 57.2081 93.6261 51.0326 97.6149C47.185 100.097 43.2155 102.405 39.1754 104.566C38.3418 105.015 36.9823 104.47 35.86 104.387C36.155 103.271 36.0781 101.725 36.8027 101.097C41.8688 96.6914 47.0375 92.4013 52.3088 88.2394C54.0658 86.8543 54.7969 85.4178 54.8161 83.1477C54.8546 77.6135 54.9572 72.0536 55.528 66.5579C56.0602 61.4084 60.8121 59.1832 64.8521 62.287C69.8989 66.1731 74.529 70.6172 79.268 74.8945C79.9029 75.4716 80.1401 76.4912 80.8006 77.7674C79.6912 78.9345 78.8255 80.3004 77.5878 81.0571ZM87.2391 30.9158C85.7385 31.9097 84.0776 32.7113 82.4102 33.3975C77.248 35.533 72.3871 38.1301 68.4176 42.1509C66.9811 43.6002 65.8782 43.6836 64.6148 41.8175C63.6209 40.3489 62.2036 39.1754 60.594 37.476C65.1022 35.4624 69.3603 33.327 73.7979 31.6468C77.7738 30.1462 81.9165 29.0561 86.0335 27.9787C86.9825 27.7286 88.1368 28.2865 89.1949 28.4725C88.5537 29.3062 88.0663 30.3643 87.2391 30.9158Z" fill="#BB86FC"/>
<path d="M65.8461 74.8113C67.3403 75.7091 68.4561 76.376 69.9695 77.2802C68.2252 78.4986 66.885 79.4413 64.7495 80.9355C65.1856 78.4922 65.4806 76.8698 65.8461 74.8113Z" fill="#BB86FC"/>
<path d="M47.8776 15.0444C47.8648 18.302 46.0949 20.6683 43.9274 20.694C41.7535 20.7197 39.695 18.783 39.7334 16.7566C39.7847 13.9542 42.3883 10.8889 44.7033 11.0428C47.4159 11.2159 47.6211 13.3514 47.8776 15.0444Z" fill="#BB86FC"/>
</g>
<defs>
<clipPath id="clip0">
<rect width="114.955" height="115" fill="white"/>
</clipPath>
</defs>
</svg>
