<svg width="116" height="115" viewBox="0 0 116 115" fill="none" xmlns="http://www.w3.org/2000/svg">
<g clip-path="url(#clip0)">
<path d="M57.7374 -0.000311267C25.4658 -0.135017 -0.0384438 24.7983 4.35019e-05 57.4997C0.0385308 91.0349 26.505 114.66 57.0959 114.993C88.8287 115.34 114.987 89.2581 115.045 57.66C114.743 26.1839 90.5414 0.134394 57.7374 -0.000311267ZM44.7159 59.1546C32.7078 59.8282 20.6998 60.5402 8.68534 61.0982C7.68467 61.1431 6.6391 60.0912 5.61277 59.5459C6.44666 58.7505 7.18434 57.4099 8.12086 57.2559C16.1968 55.8768 24.2919 54.0294 32.432 53.7792C36.6015 53.651 40.8607 56.4926 45.0751 57.9936C44.9596 58.3849 44.8377 58.7698 44.7159 59.1546ZM49.36 58.3336C43.5933 56.0949 37.9742 53.4842 32.3229 50.9569C31.5917 50.6297 30.9631 49.9369 30.4307 49.2891C25.4722 43.2786 20.4945 37.281 15.6708 31.168C14.9844 30.2956 15.0935 28.7946 14.8305 27.5822C16.1519 27.8003 17.871 27.5566 18.7177 28.3071C23.6697 32.6946 28.5319 37.1976 33.1825 41.9059C35.0299 43.7726 37.0056 44.7027 39.4944 45.1838C43.7857 46.0048 48.0578 46.9927 52.2914 48.0575C54.9535 48.731 56.3775 50.6105 56.6084 52.9454C56.5186 56.9994 52.8944 59.7063 49.36 58.3336ZM83.1711 41.3094C86.2949 41.2388 88.8864 43.8046 88.8736 46.9606C88.8672 50.0781 86.5708 52.3681 83.4148 52.413C80.1113 52.4579 77.6738 50.1037 77.693 46.8772C77.7059 43.9457 80.2332 41.3735 83.1711 41.3094ZM94.0052 71.2461C88.7966 70.8035 83.5688 70.3288 78.4179 69.4436C76.7822 69.1677 74.8578 67.9362 73.9405 66.557C71.3362 62.6634 69.0911 58.5196 66.8845 54.3694C65.1911 51.1814 66.1789 48.1665 68.9757 47.1402C71.7147 46.1395 74.0881 47.57 75.1978 50.9312C76.2305 54.0743 77.4749 57.1725 78.1549 60.3927C78.8797 63.7924 80.9452 64.7353 84.0883 64.6198C77.9753 62.5928 79.7264 56.4734 77.6738 52.2398C77.9881 52.4386 78.45 52.5605 78.5975 52.8427C82.3372 59.8346 89.4509 62.8109 95.4357 67.1407C96.4556 67.8848 96.988 69.3025 97.7449 70.4122C96.4941 70.7072 95.2176 71.3487 94.0052 71.2461ZM104.532 62.6762C101.408 62.7019 98.861 60.0912 98.9316 56.9416C99.0086 53.7664 101.587 51.361 104.801 51.4828C107.732 51.5919 110.163 54.2026 110.125 57.1918C110.08 60.0206 107.399 62.6506 104.532 62.6762Z" fill="#BB86FC"/>
<path d="M56.6084 52.9456C56.5186 56.9996 52.8944 59.7066 49.36 58.3339C43.5997 56.0952 37.9742 53.4845 32.3294 50.9571C31.5917 50.63 30.9695 49.9372 30.4371 49.2893C25.4786 43.2789 20.501 37.2813 15.6772 31.1683C14.9909 30.2959 15.0999 28.7949 14.8369 27.5825C16.1519 27.8006 17.8774 27.5569 18.7241 28.3074C23.6762 32.6949 28.5384 37.1979 33.1889 41.9062C35.0363 43.7728 37.012 44.7094 39.5009 45.184C43.7922 46.0051 48.0643 46.9929 52.2979 48.0642C54.9535 48.7313 56.3775 50.6107 56.6084 52.9456Z" fill="white"/>
<path d="M84.0884 64.6201C77.969 62.5931 79.7265 56.4736 77.6675 52.24C77.9818 52.4389 78.4436 52.5607 78.5912 52.843C82.3308 59.8348 89.4446 62.8048 95.4294 67.141C96.4493 67.8787 96.9817 69.3027 97.7386 70.406C96.4942 70.7075 95.2177 71.3425 93.9989 71.2399C88.7903 70.7973 83.5624 70.3162 78.4116 69.4374C76.7694 69.1552 74.8515 67.93 73.9278 66.5509C71.3235 62.6572 69.0784 58.507 66.8718 54.3632C65.1783 51.1752 66.1662 48.154 68.9629 47.134C71.7084 46.1334 74.0753 47.5574 75.185 50.925C76.2178 54.0617 77.4622 57.1664 78.1486 60.3801C78.8798 63.799 80.9453 64.7356 84.0884 64.6201Z" fill="white"/>
<path d="M44.7159 59.155C32.7078 59.8285 20.6934 60.5405 8.67895 61.0922C7.68469 61.1371 6.63271 60.0851 5.61279 59.5399C6.44027 58.7445 7.17794 57.4038 8.11447 57.2499C16.1968 55.8772 24.292 54.0298 32.4256 53.7796C36.5951 53.6513 40.8543 56.493 45.0687 57.994C44.9596 58.3852 44.8377 58.7701 44.7159 59.155Z" fill="white"/>
<path d="M110.125 57.1921C110.086 60.021 107.399 62.6509 104.532 62.6766C101.408 62.7022 98.861 60.0915 98.9316 56.942C99.0086 53.7668 101.587 51.3613 104.801 51.4832C107.732 51.5922 110.163 54.203 110.125 57.1921Z" fill="white"/>
<path d="M83.4148 52.4132C80.1113 52.4581 77.6737 50.104 77.693 46.8775C77.7058 43.946 80.2331 41.3738 83.1774 41.3096C86.2949 41.2391 88.8928 43.8049 88.88 46.9609C88.8671 50.0783 86.5707 52.3683 83.4148 52.4132Z" fill="white"/>
</g>
<defs>
<clipPath id="clip0">
<rect width="115.045" height="115" fill="white"/>
</clipPath>
</defs>
</svg>
