<svg width="116" height="115" viewBox="0 0 116 115" fill="none" xmlns="http://www.w3.org/2000/svg">
<g clip-path="url(#clip0)">
<path d="M57.7241 -7.1074e-05C26.0013 -0.0770371 0.140704 25.527 -0.000399868 57.1536C-0.141504 88.9469 25.6293 114.917 57.397 115C88.9466 115.083 114.852 89.2869 115.006 57.6474C115.16 26.085 89.3122 0.0704811 57.7241 -7.1074e-05ZM78.1201 10.7239C81.5835 10.6725 84.2517 13.315 84.1619 16.7144C84.0914 19.7674 81.4809 22.4099 78.4664 22.4868C74.9581 22.5766 72.3669 20.0624 72.354 16.5797C72.3476 13.1098 74.6438 10.7816 78.1201 10.7239ZM55.2099 29.1123C58.327 29.0353 61.1876 31.7356 61.303 34.8719C61.4313 38.2456 58.776 41.0485 55.4087 41.0998C51.9196 41.1511 49.354 38.592 49.3861 35.09C49.4118 31.8189 51.9709 29.1957 55.2099 29.1123ZM35.6092 51.4517C38.0721 45.2174 40.798 39.0858 43.6008 32.9927C43.9344 32.2615 45.4224 32.0563 46.3716 31.6073C46.6602 32.6143 47.3786 33.7303 47.1669 34.6154C46.2048 38.6048 44.9734 42.5236 43.665 47.071C47.4363 45.7498 50.5598 44.5119 53.7732 43.5755C56.4221 42.8058 58.3847 44.1592 59.5264 46.4617C60.6616 48.7322 60.0202 50.8873 58.1987 52.542C57.4547 53.2091 56.3579 53.6965 55.3638 53.844C49.989 54.665 44.6142 55.4347 39.2138 56.0568C36.1287 56.416 34.4419 54.3956 35.6092 51.4517ZM67.5822 70.8022C66.5303 77.3251 65.3181 83.8159 64.2277 90.3323C63.8044 92.8786 62.3485 94.2833 59.9048 94.8348C50.7651 96.9258 41.6382 99.1129 32.4664 101.037C31.235 101.294 28.9581 100.646 28.5283 99.7607C27.5214 97.6633 29.5353 96.8937 31.1837 96.31C39.3036 93.411 47.4299 90.5376 55.723 87.5936V81.4812C53.6128 83.4695 51.8362 85.0281 50.1943 86.7214C48.2893 88.6904 46.2497 88.9598 43.8381 87.7411C36.892 84.2328 29.8752 80.8591 22.9996 77.216C21.8836 76.626 21.3577 74.9199 20.5623 73.7269C21.9798 73.5153 23.5576 72.7905 24.7891 73.1689C31.607 75.2727 38.3351 77.6458 45.2428 79.974C49.0462 75.2983 52.8496 70.5777 56.7107 65.8956C59.257 62.8042 61.7392 61.996 64.4586 63.2275C67.146 64.4525 68.2235 66.8385 67.5822 70.8022ZM88.395 26.3031C81.7054 33.044 74.8875 39.6502 68.0953 46.2821C67.8772 46.4938 67.5437 46.5772 67.1781 46.7696C65.5425 44.6979 63.9263 42.6455 61.9508 40.1441C63.4132 39.182 64.8306 38.2905 66.2032 37.3348C72.7774 32.7938 79.313 28.208 85.9321 23.7311C86.6505 23.2501 87.7985 23.404 88.7478 23.2629C88.6516 24.2955 88.9595 25.7322 88.395 26.3031Z" fill="#BB86FC"/>
<path d="M55.7234 87.5936C55.7234 85.6118 55.7234 83.9121 55.7234 81.4812C53.6133 83.4695 51.8302 85.0281 50.1947 86.7214C48.2898 88.6904 46.2502 88.9598 43.8386 87.7411C36.8924 84.2328 29.8693 80.8591 22.9937 77.2096C21.8776 76.6196 21.3517 74.9135 20.5564 73.7205C21.9739 73.5089 23.5517 72.7841 24.7895 73.1625C31.601 75.2662 38.3291 77.6394 45.2432 79.9676C49.0466 75.2919 52.85 70.5713 56.7112 65.8892C59.2575 62.8042 61.7396 61.9896 64.4591 63.2211C67.1529 64.4461 68.224 66.832 67.5826 70.7958C66.5308 77.3187 65.3121 83.8095 64.2282 90.3259C63.8049 92.8658 62.3425 94.2704 59.9053 94.8284C50.7655 96.9193 41.6387 99.1 32.4605 101.024C31.2354 101.281 28.9521 100.639 28.5288 99.7543C27.5154 97.6505 29.5358 96.8873 31.1777 96.2972C39.304 93.4174 47.4304 90.5376 55.7234 87.5936Z" fill="white"/>
<path d="M43.6718 47.0711C47.4431 45.7499 50.5666 44.5184 53.78 43.582C56.4289 42.8123 58.3915 44.1656 59.5332 46.4682C60.6684 48.7387 60.027 50.8937 58.1991 52.5485C57.4551 53.222 56.3647 53.703 55.3642 53.8569C49.9958 54.6779 44.6146 55.4476 39.2206 56.0697C36.1355 56.4289 34.4487 54.4085 35.616 51.4646C38.0789 45.2303 40.8048 39.0923 43.6076 32.9992C43.9476 32.268 45.4292 32.0627 46.3848 31.6138C46.6734 32.6207 47.3918 33.7367 47.1801 34.6283C46.2052 38.6048 44.9738 42.5237 43.6718 47.0711Z" fill="white"/>
<path d="M61.9512 40.1441C63.4135 39.1821 64.831 38.2905 66.21 37.3349C72.7841 32.7939 79.3198 28.2016 85.9389 23.7311C86.6573 23.2501 87.8053 23.404 88.7482 23.2629C88.652 24.2956 88.9598 25.7323 88.3954 26.3031C81.7058 33.0376 74.8879 39.6503 68.0956 46.2822C67.884 46.4938 67.544 46.5772 67.1849 46.7632C65.5429 44.698 63.9266 42.6455 61.9512 40.1441Z" fill="white"/>
<path d="M55.409 41.0999C51.9263 41.1512 49.3608 38.5921 49.3864 35.0901C49.4121 31.8191 51.9712 29.1958 55.2102 29.1124C58.3337 29.0355 61.1879 31.7357 61.3097 34.8721C61.4316 38.2457 58.7763 41.0486 55.409 41.0999Z" fill="white"/>
<path d="M72.3545 16.5798C72.3481 13.1099 74.6442 10.7817 78.1141 10.7303C81.5776 10.679 84.2457 13.3215 84.1624 16.7209C84.0854 19.7739 81.4814 22.4164 78.4669 22.4933C74.9585 22.5767 72.3673 20.0625 72.3545 16.5798Z" fill="white"/>
</g>
<defs>
<clipPath id="clip0">
<rect width="115.006" height="115" fill="white"/>
</clipPath>
</defs>
</svg>
