<svg width="115" height="115" viewBox="0 0 115 115" fill="none" xmlns="http://www.w3.org/2000/svg">
<g clip-path="url(#clip0)">
<path d="M83.1133 80.0242C79.566 73.6895 75.9482 67.3996 72.3112 61.1226C70.7653 58.4489 68.8537 56.0894 65.3193 56.4164C61.849 56.737 60.239 59.2824 59.1229 62.1805C57.1023 67.4573 55.3254 72.8303 53.1188 78.0238C52.3555 79.8126 50.9251 81.6849 49.2829 82.6723C43.4393 86.1987 37.3711 89.3468 31.3992 92.6552C30.3729 93.2259 29.2247 93.726 28.4613 94.5595C27.9161 95.1558 27.5697 96.3676 27.7942 97.0921C28.0059 97.7718 29.0964 98.1821 29.6801 98.6245C30.7641 98.2847 31.4826 98.1052 32.1753 97.8423C35.9663 96.4125 39.8279 95.1173 43.5291 93.4824C51.3035 90.0585 59.2063 87.4425 67.8787 87.667C71.7018 87.7695 75.5505 87.2758 79.38 87.0001C84.3834 86.6347 85.5893 84.4355 83.1133 80.0242ZM61.8747 82.2619C63.8183 78.6778 65.454 75.6643 67.404 72.0673C69.694 75.0103 71.5927 77.4531 73.9084 80.4346C69.6876 81.0757 66.1083 81.6143 61.8747 82.2619Z" fill="white"/>
<path d="M45.4213 19.639C46.1398 23.8579 46.7812 28.0639 47.6472 32.2187C47.7755 32.8278 48.9301 33.5716 49.6614 33.6357C52.7403 33.905 55.845 33.8922 58.9368 34.0781C62.638 34.3025 64.7163 36.6364 64.1775 39.8422C63.6771 42.8557 61.1626 44.2855 57.5577 43.4263C53.5101 42.4582 49.501 41.3489 45.4727 40.2974C42.8619 39.6178 41.7586 38.0597 41.5854 35.2386C41.1685 28.3396 40.3987 21.4663 39.6996 14.5866C39.4301 11.9065 40.9761 9.26487 43.4264 8.58523C46.1718 7.82224 48.9686 9.13664 50.0462 11.7013C51.0533 14.0929 50.1424 17.1256 47.9423 18.4785C47.2431 18.908 46.4284 19.1773 45.4213 19.639Z" fill="white"/>
<path d="M75.7172 38.3291C77.7891 39.2524 79.2837 39.7781 80.6372 40.554C85.0824 43.1122 89.81 43.5867 94.8069 42.8878C97.2252 42.548 99.6884 42.4198 102.126 42.4903C102.941 42.5159 103.736 43.4456 104.538 43.965C103.96 44.6254 103.479 45.7346 102.799 45.8692C94.7235 47.4658 86.7566 50.3767 78.3023 47.517C76.1149 46.7797 75.3708 45.9782 75.6787 43.779C75.8904 42.2338 75.7172 40.6309 75.7172 38.3291Z" fill="white"/>
<path d="M75.4095 28.0576C75.371 31.4558 72.6897 34.1615 69.3606 34.1615C65.9673 34.1615 63.0551 31.1993 63.1385 27.8332C63.2283 24.2811 66.025 21.6331 69.5658 21.7549C72.9399 21.8767 75.448 24.5824 75.4095 28.0576Z" fill="white"/>
<path d="M57.4934 1.07057e-05C23.9966 0.0192458 0.0960329 26.7432 -0.0001853 57.3718C-0.102818 89.1225 25.8825 115.051 57.6024 115C89.1428 114.955 115.051 88.9557 115 57.4167C114.653 25.884 90.2332 -0.0192244 57.4934 1.07057e-05ZM69.572 21.7613C72.9396 21.8767 75.4477 24.5824 75.4092 28.0575C75.3772 31.4557 72.6959 34.1615 69.3667 34.1679C65.967 34.1679 63.0548 31.2057 63.1446 27.8331C63.228 24.2811 66.0312 21.633 69.572 21.7613ZM43.4327 8.57244C46.1846 7.80944 48.9813 9.13025 50.0589 11.6885C51.066 14.0865 50.1552 17.1128 47.955 18.4657C47.243 18.9081 46.4283 19.1774 45.4212 19.639C46.1396 23.8579 46.7811 28.0576 47.6471 32.2187C47.7689 32.8214 48.93 33.5716 49.6612 33.6357C52.7402 33.905 55.8449 33.8922 58.9367 34.0781C62.6379 34.3025 64.7162 36.6364 64.1774 39.8422C63.677 42.8557 61.1689 44.2791 57.564 43.42C53.5164 42.4582 49.5009 41.3426 45.479 40.291C42.8682 39.6114 41.7649 38.0534 41.5917 35.2322C41.1748 28.3333 40.405 21.4599 39.7059 14.5802C39.4365 11.8937 40.9824 9.25849 43.4327 8.57244ZM79.3798 87.0002C75.5503 87.2759 71.7016 87.7696 67.8785 87.667C59.2061 87.4426 51.3034 90.0586 43.5289 93.4824C39.8277 95.1174 35.9662 96.4125 32.1752 97.8424C31.4824 98.1052 30.764 98.2848 29.6799 98.6246C29.0962 98.1822 28.0057 97.7718 27.794 97.0922C27.5695 96.3677 27.9159 95.1558 28.4612 94.5596C29.2245 93.726 30.3727 93.2259 31.399 92.6553C37.371 89.3469 43.4391 86.1987 49.2828 82.6723C50.9249 81.6849 52.3553 79.8127 53.1187 78.0238C55.3253 72.8304 57.1021 67.4574 59.1227 62.1805C60.2388 59.2825 61.8489 56.737 65.3191 56.4164C68.8536 56.0894 70.7651 58.4489 72.311 61.1226C75.9481 67.3997 79.5659 73.6895 83.1131 80.0243C85.5891 84.4355 84.3832 86.6347 79.3798 87.0002ZM102.793 45.8692C94.717 47.4657 86.7566 50.3766 78.3022 47.5234C76.1084 46.7797 75.3643 45.9846 75.6722 43.779C75.8903 42.2338 75.7171 40.6309 75.7171 38.3291C77.789 39.2524 79.2836 39.7781 80.6371 40.5539C85.0824 43.1122 89.8099 43.5802 94.8004 42.8814C97.2187 42.548 99.6883 42.4197 102.119 42.4903C102.94 42.5095 103.729 43.4456 104.531 43.9649C103.96 44.6253 103.473 45.7346 102.793 45.8692Z" fill="#BB86FC"/>
<path d="M61.8748 82.262C63.8184 78.6778 65.4541 75.6643 67.4041 72.0674C69.6941 75.0103 71.5928 77.4532 73.9084 80.4282C69.6877 81.0758 66.1084 81.6144 61.8748 82.262Z" fill="#BB86FC"/>
</g>
<defs>
<clipPath id="clip0">
<rect width="115" height="115" fill="white"/>
</clipPath>
</defs>
</svg>
