<svg width="116" height="115" viewBox="0 0 116 115" fill="none" xmlns="http://www.w3.org/2000/svg">
<ellipse cx="57.5" cy="56.5" rx="49.5" ry="46.5" fill="white"/>
<path d="M57.5804 0C26.6528 0.0898684 0.115944 24.226 0.000398546 57.3874C-0.115147 89.2971 24.9068 114.871 57.3044 115C89.6442 115.128 115.09 89.7722 115.071 57.4965C115.045 24.7395 88.9637 0.186156 57.5804 0ZM47.6949 57.657C47.329 60.796 44.8062 62.3815 41.9818 63.5755C40.3385 64.2688 38.6246 65.2766 37.4755 66.6054C34.4072 70.1616 31.8267 74.1479 28.6363 77.5821C27.3782 78.9302 25.0095 79.9316 23.1736 79.8866C20.5931 79.8289 19.5725 77.4473 19.4826 75.0145C19.2194 67.7544 18.8728 60.4879 18.9177 53.2278C18.9498 48.1887 22.3006 45.1332 26.4602 45.6853C30.5813 46.2309 32.6419 50.0631 31.3837 55.0508C30.5749 58.2283 29.6249 61.3737 28.739 64.5384C31.525 62.343 34.2531 60.5328 35.0042 56.7262C35.9221 52.0659 39.8635 49.9155 43.1565 51.6487C45.5573 52.9133 48.0543 54.5758 47.6949 57.657ZM43.3812 48.1502C38.4705 48.1053 34.4714 44.0548 34.4842 39.1441C34.497 34.1436 38.7209 30.0353 43.7278 30.1444C48.5871 30.2536 52.49 34.3747 52.4451 39.3431C52.4001 44.2666 48.356 48.1952 43.3812 48.1502ZM99.7287 61.5856C96.4485 62.9978 91.9037 62.0156 90.0165 58.9665C88.9573 57.2526 87.8083 57.0472 86.0944 57.1563C75.6696 57.8047 65.2321 58.3952 54.8009 58.9858C53.9985 59.0307 53.1833 58.9088 52.2204 58.8574C52.5927 55.237 52.9008 52.1943 53.241 48.8242C58.6267 49.0938 63.9097 49.4597 69.1991 49.6074C77.4927 49.8321 85.7863 49.8962 94.0734 50.0631C95.7681 50.0952 97.5012 50.1081 99.1381 50.474C101.584 51.026 103.047 52.7656 103.112 55.2691C103.182 57.9138 102.56 60.3595 99.7287 61.5856Z" fill="#BB86FC"/>
</svg>
