<svg width="116" height="115" viewBox="0 0 116 115" fill="none" xmlns="http://www.w3.org/2000/svg">
<g clip-path="url(#clip0)">
<path d="M115.083 57.5C115.083 65.441 113.472 73.0032 110.564 79.885C110.416 80.2253 110.269 80.5655 110.121 80.8993L109.851 81.4963C109.582 82.0741 109.306 82.6454 109.023 83.2103C108.908 83.4479 108.786 83.679 108.67 83.9165C108.632 83.9807 108.593 84.0513 108.561 84.1219C108.317 84.5905 108.06 85.0528 107.804 85.515C107.662 85.7653 107.521 86.0221 107.373 86.2725C107.226 86.5228 107.078 86.7732 106.93 87.0236C106.783 87.2675 106.629 87.5179 106.475 87.7682C106.321 88.0122 106.167 88.2561 106.012 88.5065C105.769 88.8852 105.525 89.2576 105.274 89.6299C105.261 89.6363 105.255 89.6492 105.249 89.662C105.024 90.0087 104.786 90.3425 104.549 90.6827C104.209 91.1578 103.862 91.6328 103.509 92.1014C103.284 92.4032 103.053 92.7049 102.816 93.0002C102.533 93.3661 102.244 93.7256 101.949 94.0787C101.93 94.1108 101.898 94.1429 101.872 94.1749C91.3245 106.899 75.3976 115 57.5833 115C57.1532 115 56.7231 114.994 56.293 114.981C55.9592 114.974 55.6254 114.961 55.2915 114.949C45.5531 114.57 36.4373 111.771 28.5284 107.123C28.2716 106.982 28.0148 106.828 27.7645 106.674C21.8392 103.072 16.6137 98.4311 12.3447 93.0002C12.197 92.8204 12.0622 92.6343 11.9274 92.4545C11.0351 91.2733 10.1941 90.0536 9.39169 88.7889C9.14132 88.3973 8.85886 88.0186 8.53147 87.5179C8.48653 87.4537 8.44159 87.3831 8.40307 87.3189C8.16555 86.9209 7.92803 86.5228 7.69692 86.1248C7.67766 86.0991 7.66482 86.0735 7.65199 86.0478C6.55424 84.1283 5.55921 82.1383 4.68615 80.0904C1.72031 73.1573 0.0769043 65.518 0.0769043 57.5C0.0769043 53.751 0.4364 50.0918 1.12329 46.5482C4.75676 27.694 17.6023 12.1201 34.7875 4.69912C35.1983 4.52579 35.6156 4.34604 36.0329 4.17913C36.3988 4.03148 36.7647 3.88383 37.1306 3.74902C37.4002 3.64631 37.6698 3.5436 37.9395 3.4473C38.3311 3.29965 38.7291 3.15842 39.1271 3.03003C39.1399 3.02361 39.1528 3.01719 39.1656 3.01719C39.5572 2.88238 39.9488 2.75399 40.3468 2.63202C40.4559 2.5935 40.5651 2.5614 40.6742 2.52931C40.9631 2.43943 41.252 2.34956 41.5473 2.27252C41.8105 2.18907 42.0737 2.11204 42.3433 2.04784C42.4332 2.01574 42.523 1.99006 42.6129 1.9708C42.9852 1.86809 43.364 1.7718 43.7428 1.68192C43.8069 1.66267 43.8711 1.64341 43.9289 1.63057C44.3269 1.53427 44.7249 1.4444 45.123 1.35453C45.1807 1.34169 45.2449 1.32885 45.3027 1.31601C45.675 1.23256 46.0474 1.15552 46.4197 1.08491C46.5224 1.06565 46.6316 1.04639 46.7343 1.02713C47.1323 0.950095 47.5367 0.87306 47.9411 0.808865C48.3969 0.73183 48.8591 0.661215 49.3278 0.5906H49.3534C49.7707 0.526404 50.1944 0.475047 50.6117 0.423691C50.7144 0.410852 50.8171 0.398013 50.9198 0.385174C51.3371 0.340237 51.7479 0.2953 52.1652 0.256782C52.5761 0.218265 52.9869 0.186167 53.3913 0.154069C54.3029 0.0898738 55.2017 0.0449369 56.1004 0.0192587C56.5947 0.00641956 57.089 0 57.5833 0C58.0199 0 58.4564 0.00641956 58.8929 0.0192587C59.1369 0.0192587 59.3744 0.0256782 59.6119 0.0385174C59.7917 0.0449369 59.965 0.0513565 60.1447 0.0641956C60.3887 0.0706152 60.6262 0.0770347 60.8701 0.0962934C61.0435 0.109133 61.2232 0.115552 61.403 0.128391C61.6918 0.14765 61.9807 0.166909 62.276 0.192587C76.9511 1.37379 90.0663 8.06939 99.548 18.1995C99.7919 18.4627 100.042 18.7323 100.286 18.9955C100.293 19.0019 100.299 19.0083 100.306 19.0147C109.492 29.2026 115.083 42.6965 115.083 57.5Z" fill="white"/>
<path d="M111.758 76.7908C111.886 76.4377 112.008 76.0846 112.124 75.7251C116.136 63.8233 116.252 50.6953 111.88 38.2734C109.383 31.1798 105.409 24.6254 100.299 19.0147C100.293 19.0083 100.286 19.0019 100.28 18.9955C100.036 18.7323 99.7856 18.4627 99.5416 18.1995C90.092 8.21062 76.9705 1.39946 62.2761 0.192587C61.9808 0.166909 61.6919 0.14765 61.403 0.128391C61.2233 0.115552 61.0435 0.109133 60.8702 0.0962934C60.6263 0.0770347 60.3887 0.0706152 60.1448 0.0641956C59.9651 0.0513565 59.7917 0.0449369 59.612 0.0385174C59.3745 0.0256782 59.1369 0.0192587 58.893 0.0192587C58.4565 0.00641956 58.0199 0 57.5834 0C57.0891 0 56.5948 0.00641956 56.1005 0.0192587C55.2017 0.0449369 54.303 0.0898738 53.3914 0.154069C52.987 0.186167 52.5761 0.218265 52.1653 0.256782C51.748 0.2953 51.3372 0.340237 50.9199 0.385174C50.8172 0.398013 50.7145 0.410852 50.6118 0.423691C50.1945 0.475047 49.7708 0.526404 49.3535 0.5906H49.3278C48.8592 0.661215 48.397 0.73183 47.9412 0.808865C47.5368 0.87306 47.1324 0.950095 46.7343 1.02713C46.6316 1.04639 46.5225 1.06565 46.4198 1.08491C46.0474 1.15552 45.6751 1.23256 45.3028 1.31601C45.245 1.32885 45.1808 1.34169 45.123 1.35453C44.725 1.4444 44.327 1.53427 43.929 1.63057C43.8712 1.64341 43.807 1.66267 43.7428 1.68192C43.3641 1.7718 42.9853 1.86809 42.613 1.9708C42.5231 1.99006 42.4332 2.01574 42.3434 2.04784C42.0737 2.11204 41.8105 2.18907 41.5473 2.27252C41.252 2.34956 40.9632 2.43943 40.6743 2.52931C40.5651 2.5614 40.456 2.5935 40.3469 2.63202C39.9489 2.75399 39.5573 2.88238 39.1657 3.01719C39.1528 3.01719 39.14 3.02361 39.1272 3.03003C38.7291 3.15842 38.3311 3.29965 37.9395 3.4473C37.6699 3.5436 37.4003 3.64631 37.1307 3.74902C36.7648 3.88383 36.3988 4.03148 36.0329 4.17913C35.6157 4.34604 35.1984 4.52579 34.7875 4.69912C17.2814 12.3063 4.80177 28.3103 1.12336 46.5482C-1.01435 57.1405 -0.17981 68.4903 4.35882 79.3907C4.46153 79.6411 4.57066 79.8786 4.68622 80.0904C5.5657 81.7788 6.7148 82.3565 8.84609 82.3501C37.4131 82.2602 65.9802 82.2923 94.5472 82.2923H98.4567V85.9387L7.65205 86.0478C7.66489 86.0735 7.67773 86.0991 7.69699 86.1248C7.94735 86.5999 8.18488 86.985 8.40314 87.3189C8.44166 87.3831 8.4866 87.4537 8.53153 87.5179C8.85893 88.0186 9.14139 88.3973 9.39175 88.7889C10.1942 90.0536 11.0352 91.2733 11.9275 92.4545C12.0623 92.6343 12.1971 92.8204 12.3448 93.0002C16.6523 98.5788 21.9099 103.162 27.7645 106.674C28.0149 106.828 28.2717 106.982 28.5285 107.123C36.6749 111.848 45.9191 114.519 55.2916 114.949C55.6254 114.961 55.9592 114.974 56.2931 114.981C56.7232 114.994 57.1533 115 57.5834 115C57.6733 115 57.7696 114.994 57.8594 114.994C69.0359 115.013 80.2765 111.835 89.9572 105.12C93.6035 102.591 96.8839 99.7086 99.7856 96.5566C99.8369 96.5053 99.8819 96.4539 99.9268 96.4025C100.222 96.0816 100.511 95.7606 100.8 95.4332C101.166 95.0223 101.519 94.5986 101.872 94.1749C101.898 94.1429 101.93 94.1108 101.949 94.0787C102.244 93.7256 102.533 93.3661 102.816 93.0002C103.053 92.7049 103.284 92.4032 103.509 92.1014C103.862 91.6328 104.209 91.1578 104.549 90.6827C104.786 90.3425 105.024 90.0087 105.249 89.662C105.255 89.6492 105.261 89.6363 105.274 89.6299C105.525 89.2576 105.769 88.8852 106.013 88.5065C106.167 88.2561 106.321 88.0122 106.475 87.7682C106.629 87.5179 106.783 87.2675 106.931 87.0236C107.078 86.7732 107.226 86.5228 107.373 86.2725C107.521 86.0221 107.662 85.7653 107.804 85.515C108.06 85.0528 108.317 84.5905 108.561 84.1219C108.593 84.0513 108.632 83.9807 108.67 83.9165C108.786 83.679 108.908 83.4479 109.023 83.2103C109.306 82.6454 109.582 82.0741 109.851 81.4963L110.121 80.8993C110.269 80.5655 110.416 80.2252 110.564 79.885C110.84 79.2238 111.11 78.5562 111.36 77.8821C111.495 77.5226 111.63 77.1567 111.758 76.7908ZM11.8954 41.8299C11.8825 41.6437 11.9339 41.4575 12.0302 41.2585C12.088 41.1365 12.165 41.0082 12.2613 40.8798C12.3255 40.7835 12.4089 40.6808 12.4988 40.578C12.7941 40.2057 13.1921 39.7949 13.6287 39.3198C13.7506 39.185 13.879 39.0438 14.001 38.8961C14.2064 38.665 14.4119 38.4211 14.6237 38.1579C15.2464 39.1914 15.8948 39.9939 16.3249 40.6679C16.4148 40.7963 16.4918 40.9183 16.556 41.0402C16.5945 41.1044 16.633 41.1751 16.6587 41.2457C16.7229 41.3805 16.7742 41.5025 16.8063 41.6244C16.8577 41.7913 16.8705 41.9582 16.8449 42.1123C16.7807 42.5103 16.4597 42.9918 16.0424 43.4091C15.4839 43.974 14.7521 44.4298 14.277 44.3784C13.5837 44.3142 12.6208 43.4476 12.165 42.6195C12.088 42.4782 12.0238 42.3434 11.9788 42.2086C11.9339 42.0802 11.9018 41.9518 11.8954 41.8299ZM66.4296 60.8767C66.0444 61.0436 65.6592 61.1977 65.274 61.3453C65.274 61.3453 65.2676 61.3453 65.2676 61.3517C64.9338 61.4801 64.5936 61.6085 64.2597 61.7177C64.0158 61.8075 63.7719 61.891 63.5279 61.968C63.0015 62.1478 62.4751 62.3018 61.9423 62.4495C61.1077 62.6806 60.2796 62.8796 59.4451 63.0465C59.0535 63.1235 58.6683 63.2006 58.2767 63.2648C57.8851 63.329 57.4999 63.3867 57.1083 63.4445C56.7168 63.4959 56.3316 63.5472 55.94 63.5857C55.5484 63.6243 55.1568 63.6628 54.7716 63.6949C54.38 63.727 53.9884 63.7527 53.6033 63.7719C44.9176 64.2213 36.187 62.0643 27.4821 60.0229C27.0006 60.5878 26.5256 61.095 26.0505 61.5507C25.7295 61.8525 25.415 62.1285 25.1004 62.3853C24.6254 62.764 24.1567 63.0979 23.6817 63.3675C23.3671 63.5536 23.0526 63.7141 22.7316 63.8489C22.0961 64.125 21.4541 64.3047 20.8057 64.3946C19.9263 64.5166 19.0275 64.4716 18.0903 64.2662C17.8014 64.202 17.4997 64.1186 17.1979 64.0223C16.8962 63.926 16.5945 63.8104 16.2864 63.682C13.3847 62.4623 11.6322 59.4901 12.1008 56.4793C12.5759 53.4107 14.3027 51.4271 17.3969 50.8301C17.6152 50.7851 17.8271 50.753 18.0389 50.7209C18.4498 50.6632 18.8413 50.6182 19.2201 50.599C19.2458 50.5926 19.265 50.5926 19.2779 50.5926C21.499 50.477 23.2965 51.0355 24.8115 52.3258C25.8836 53.2438 26.8144 54.5406 27.6554 56.2289C29.5171 56.2289 31.3852 56.2418 33.2468 56.2546H33.4394C38.1257 56.2867 42.8056 56.3124 47.4854 56.1647C49.7387 56.0941 52.0433 55.6191 54.2195 54.9322C54.5277 54.8295 54.8358 54.7267 55.144 54.624C58.9508 53.2952 62.6035 51.5555 66.3782 49.9634C66.8597 51.2153 67.3219 52.4221 67.7712 53.5905C68.2206 54.7589 68.6571 55.8951 69.0808 56.9993C69.3633 57.7375 69.6393 58.4565 69.909 59.1691C68.7534 59.811 67.5915 60.3824 66.4296 60.8767ZM69.2863 46.4327C68.7599 46.5418 68.2078 46.5932 67.6364 46.5932C67.0779 46.5932 66.5323 46.5354 66.0123 46.4327C64.4395 46.1245 63.0593 45.3799 62.0065 44.3206C61.7433 44.0574 61.4929 43.775 61.2682 43.4668C61.1142 43.2678 60.9793 43.0624 60.851 42.8506C60.851 42.8441 60.851 42.8441 60.851 42.8441C60.6519 42.5232 60.485 42.1829 60.3374 41.8299C59.9522 40.8798 59.734 39.827 59.734 38.7099C59.734 36.2127 60.8253 34.0301 62.5778 32.5921C62.8667 32.3546 63.1748 32.1363 63.5022 31.9437C64.0415 31.6163 64.6321 31.3531 65.2548 31.167C65.5051 31.0899 65.7619 31.0257 66.0187 30.9744C66.5387 30.8717 67.0779 30.8139 67.6364 30.8139C68.2014 30.8139 68.7406 30.8652 69.267 30.968C69.4018 30.9936 69.5302 31.0193 69.6586 31.0514C69.787 31.0835 69.9154 31.1156 70.0373 31.1541C70.1593 31.1926 70.2813 31.2312 70.4033 31.2761C71.0131 31.4879 71.578 31.7768 72.1044 32.1235C72.1109 32.1171 72.1109 32.1171 72.1109 32.1235C73.1444 32.8168 73.9918 33.754 74.5888 34.8711C74.5952 34.8775 74.5888 34.8775 74.5888 34.8775C74.9997 35.6607 75.2885 36.5337 75.4234 37.4646C75.4811 37.869 75.5132 38.2798 75.5132 38.7035C75.5196 42.6708 72.9647 45.7329 69.2863 46.4327ZM106.995 54.3673C106.969 54.5085 106.931 54.6497 106.886 54.7974C106.751 55.2339 106.552 55.6961 106.289 56.1968C106.109 56.5242 105.903 56.8709 105.672 57.2304C105.435 57.5963 105.197 57.9686 104.953 58.3345C104.164 59.5543 103.361 60.7676 102.565 61.9809C99.4325 66.7185 96.2548 71.4304 93.1028 76.1552C92.7048 76.7587 92.2683 77.33 91.774 77.7601C91.652 77.8693 91.5236 77.9656 91.3888 78.049C91.2604 78.1325 91.1256 78.2095 90.9844 78.2673C90.3167 78.5626 89.5528 78.5497 88.6476 78.0233C88.3395 77.8436 88.0956 77.651 87.9094 77.452C87.8709 77.4135 87.8324 77.3685 87.8003 77.3236C87.7296 77.2401 87.6719 77.1567 87.6205 77.0732C87.2482 76.4505 87.2739 75.7508 87.4729 75.0382C87.6398 74.4284 87.9351 73.8057 88.2175 73.2151C90.6891 68.0345 93.212 62.8732 95.8247 57.4743C94.7013 57.2625 93.5907 57.0635 92.4865 56.8645C89.1805 56.2674 85.9643 55.6961 82.7673 55.0156C80.7837 54.5919 79.243 53.8088 78.203 52.7495C76.7008 51.2409 76.2194 49.1803 76.9127 46.8628C77.2144 45.8421 77.7151 44.9883 78.3699 44.3142C78.5882 44.0895 78.8257 43.8841 79.0761 43.6979C79.4548 43.4219 79.8721 43.1972 80.3215 43.0239C81.5861 42.5296 83.1011 42.4333 84.7638 42.812C85.1747 42.9019 85.5919 43.0239 86.022 43.178C87.4793 43.6979 88.9365 44.2179 90.3873 44.7443C91.8446 45.2707 93.2954 45.8036 94.7462 46.3428C97.6414 47.4213 100.53 48.5383 103.393 49.7067C104.016 49.9634 104.562 50.2266 105.024 50.5091C105.255 50.6568 105.467 50.798 105.653 50.9456C105.749 51.0162 105.846 51.0933 105.929 51.1703C106.019 51.2473 106.102 51.3308 106.173 51.4078C106.398 51.6389 106.584 51.8893 106.732 52.1461C106.969 52.5826 107.085 53.0512 107.085 53.5584C107.085 53.8152 107.053 54.0848 106.995 54.3673Z" fill="#BB86FC"/>
<path d="M27.6555 56.2289C34.2677 56.2289 40.8798 56.3702 47.4856 56.1583C50.0598 56.0749 52.7047 55.4714 55.1505 54.6176C58.9509 53.2888 62.6101 51.5491 66.3848 49.957C67.6623 53.2824 68.8242 56.3188 69.9155 59.1563C55.9273 66.9689 41.663 63.3354 27.4886 60.0165C23.8166 64.3048 20.4079 65.3961 16.2929 63.6756C13.3913 62.4559 11.6387 59.4837 12.1009 56.4793C12.576 53.4043 14.3029 51.4271 17.3971 50.8301C22.2631 49.8864 25.3188 51.5234 27.6555 56.2289Z" fill="white"/>
<path d="M95.8248 57.4743C91.3375 56.6333 87.03 55.9143 82.7674 55.0092C77.9527 53.9885 75.738 50.8044 76.9191 46.8563C78.0169 43.1779 81.6504 41.6115 86.0285 43.1715C91.8575 45.245 97.6736 47.3635 103.393 49.7002C107.47 51.3693 108.08 53.5134 105.679 57.2239C101.564 63.5793 97.3013 69.8448 93.1029 76.1552C92.0244 77.7729 90.6955 79.2109 88.6477 78.0169C86.51 76.7715 87.4344 74.8649 88.2176 73.215C90.6891 68.0345 93.2056 62.8731 95.8248 57.4743Z" fill="white"/>
<path d="M75.5132 38.7035C75.5196 43.2421 72.175 46.5932 67.6364 46.5932C63.1619 46.5932 59.7339 43.178 59.7339 38.7164C59.7339 34.2804 63.1876 30.8203 67.6364 30.8139C72.1236 30.801 75.5003 34.1841 75.5132 38.7035Z" fill="white"/>
<path d="M14.6238 38.1514C15.76 40.0451 16.9926 41.1878 16.8449 42.1122C16.6973 43.0431 15.1117 44.4554 14.2771 44.3719C13.3527 44.282 11.9532 42.7799 11.9019 41.8234C11.8441 40.9118 13.2436 39.9039 14.6238 38.1514Z" fill="white"/>
</g>
<defs>
<clipPath id="clip0">
<rect width="115.154" height="115" fill="white"/>
</clipPath>
</defs>
</svg>
