<svg width="115" height="115" viewBox="0 0 115 115" fill="none" xmlns="http://www.w3.org/2000/svg">
<g clip-path="url(#clip0)">
<path d="M114.91 57.4903C114.91 57.9851 114.904 58.4799 114.891 58.9748C114.878 59.4632 114.859 59.958 114.833 60.4464C114.814 60.9348 114.782 61.4232 114.743 61.9116C114.704 62.3679 114.666 62.8242 114.621 63.2805C114.621 63.3447 114.614 63.4026 114.602 63.4668C114.557 63.9167 114.505 64.3665 114.447 64.8099C114.39 65.2855 114.319 65.7675 114.248 66.243C112.288 79.0829 106.074 90.5283 97.0962 99.0947C96.762 99.416 96.4214 99.7244 96.0808 100.033C89.4295 106.08 81.358 110.585 72.4189 112.982C72.0397 113.085 71.667 113.181 71.2879 113.278C71.1272 113.316 70.973 113.355 70.8187 113.393C70.5553 113.458 70.2918 113.515 70.0283 113.573C69.7455 113.644 69.4628 113.702 69.1736 113.76C69.0965 113.779 69.0193 113.798 68.9422 113.811C68.5052 113.901 68.0618 113.985 67.6184 114.062C64.3152 114.653 60.9157 114.961 57.4454 114.961C27.2158 114.961 2.43566 91.6143 0.154299 61.9695C0.147872 61.9373 0.147872 61.9052 0.147872 61.8731C0.122167 61.5325 0.0964612 61.1919 0.0836085 60.8513C0.0707557 60.6456 0.057903 60.4464 0.0514766 60.2472C-0.231284 53.5124 0.642703 46.8739 2.47422 40.7046C2.50635 40.6018 2.53848 40.4925 2.56419 40.3897C4.98693 32.6202 9.00985 25.5512 14.2602 19.5875C15.147 18.5657 16.0789 17.5825 17.0428 16.6314C17.1007 16.5671 17.1585 16.5093 17.2228 16.4515C19.08 14.6264 21.0593 12.9298 23.1543 11.3746C23.1543 11.3746 23.1607 11.3746 23.1607 11.3682C32.7296 4.24134 44.5991 0.0256348 57.4454 0.0256348C88.6327 0.0256348 114.017 24.87 114.884 55.8451C114.904 56.3914 114.91 56.944 114.91 57.4903Z" fill="white"/>
<path d="M75.4581 25.7441C75.5095 25.7698 75.5352 25.7826 75.5416 25.7826C75.5288 25.7634 75.4902 25.7505 75.4581 25.7441ZM114.884 55.8452C114.466 40.7625 108.265 25.8276 96.4145 15.0442C71.7693 -7.39031 38.6092 -1.37522 23.1602 11.3683C26.1614 11.741 29.5673 12.0945 32.6327 12.8142C34.0015 13.1355 35.5246 14.3565 36.2186 15.5968C37.2404 17.4155 32.3371 30.3454 29.7216 31.6371C29.7087 31.6435 29.6959 31.6306 29.7023 31.6178C30.859 27.6206 32.0158 23.6298 33.089 19.9475C33.089 19.9346 33.0826 19.9282 33.0697 19.9282H16.9652C16.9524 19.9282 16.9459 19.9346 16.9459 19.9475C18.0063 23.572 19.118 27.3764 20.2298 31.1937C19.2916 31.4957 19.7157 31.3607 18.7774 31.6692C17.3508 27.7298 15.7442 23.6812 14.2597 19.5876L14.2533 19.5812C9.04792 25.1336 4.9993 32.3568 2.5637 40.3898C2.538 40.4926 2.50586 40.6019 2.47373 40.7047C0.642215 46.874 -0.231772 53.5125 0.0509883 60.2473C0.0574147 60.4465 0.0702675 60.6457 0.0831202 60.8514C0.095973 61.192 0.121678 61.5326 0.147384 61.8732C0.147384 61.9053 0.147384 61.9374 0.15381 61.9696C1.00209 73.8648 5.50698 85.9528 14.7995 96.1386C28.7962 111.478 48.8143 117.506 67.6179 114.062C68.0613 113.985 68.5048 113.901 68.9417 113.811C69.0189 113.798 69.096 113.779 69.1731 113.76C69.4623 113.702 69.745 113.644 70.0278 113.573C70.2913 113.516 70.5548 113.458 70.8182 113.393C70.9725 113.355 71.1267 113.316 71.2874 113.278C71.6665 113.181 72.0393 113.085 72.4184 112.982C80.9205 110.662 89.0434 106.35 96.0803 100.033C96.4209 99.7245 96.7615 99.4161 97.0957 99.0947C97.5391 98.677 97.9825 98.2529 98.4195 97.8159C107.249 89.0053 112.506 77.8556 114.248 66.2431C114.318 65.7676 114.389 65.2856 114.447 64.81C114.505 64.3666 114.556 63.9168 114.601 63.4669C114.614 63.4027 114.62 63.3448 114.62 63.2806C114.665 62.8243 114.704 62.368 114.743 61.9117C114.781 61.4233 114.813 60.9349 114.832 60.4465C114.858 59.9581 114.877 59.4633 114.89 58.9749C114.903 58.48 114.91 57.9852 114.91 57.4904C114.91 56.9441 114.903 56.3915 114.884 55.8452ZM75.4324 25.7377C71.0882 25.2107 68.8711 23.3278 68.6012 19.9282C68.3569 16.8564 70.5098 13.971 73.5366 13.309C76.8526 12.5893 78.8769 14.363 81.0233 18.2317C82.495 20.8922 82.1094 23.0065 81.0748 25.4228C80.5349 26.7016 79.9116 27.9997 79.6931 29.3493C78.2729 38.3205 70.664 39.9914 63.9485 43.2495C63.942 43.2495 63.9292 43.2431 63.9292 43.2367C63.6143 40.4155 63.3444 38.012 63.0231 35.1009C63.0231 35.0945 63.0231 35.088 63.0295 35.088C68.0549 33.475 74.9954 33.7514 75.4581 25.7441C75.4517 25.7377 75.4388 25.7377 75.4324 25.7377ZM62.9074 28.6103C62.8367 31.7849 60.2854 34.2076 57.0787 34.1498C53.8847 34.0919 51.3271 31.4957 51.3977 28.3918C51.4684 25.4935 54.4374 22.6144 57.2907 22.6787C60.2726 22.7494 62.9845 25.6091 62.9074 28.6103ZM31.1161 62.0595C34.5863 59.5854 38.3136 57.4711 41.7646 54.9777C43.2041 53.9366 44.3609 52.5421 45.1063 50.9355C46.6165 47.658 47.5419 44.1107 49.1292 40.8782C49.9132 39.2716 51.6355 38.1277 52.3681 37.3694C52.3681 37.3694 52.3745 37.363 52.381 37.363C56.5774 37.3308 59.1865 40.6211 57.7534 43.3459C54.084 50.3378 51.1021 58.0045 42.7029 61.1341C39.4125 62.3551 36.3857 64.2574 33.1211 65.5362C32.125 65.9282 30.7177 65.2727 29.5031 65.0928C29.4902 65.0864 29.4838 65.0799 29.4902 65.0671C30.0172 64.0389 30.2871 62.6572 31.1161 62.0595ZM94.1074 80.6768C93.0342 81.3194 91.9546 82.5147 90.8942 82.4954C84.0566 82.399 77.2189 82.1163 70.3941 81.6664C69.1988 81.5829 67.875 80.6318 66.9624 79.7256C65.7928 78.5753 64.9702 77.0651 63.5436 75.073C63.5372 75.0601 63.5179 75.0665 63.5179 75.0794C63.4279 77.0844 63.4858 78.2669 63.293 79.4043C62.9652 81.3194 63.7942 82.2962 65.4458 83.1381C71.0624 85.9978 76.6405 88.9475 82.1608 91.9936C83.6581 92.829 86.5115 93.2853 85.2326 95.9201C84.018 98.4071 81.7688 96.7234 80.1301 96.1322C72.8875 93.5231 65.6643 90.8626 58.5439 87.9514C57.2393 87.4116 55.6906 85.7022 55.5428 84.3848C54.7266 77.168 54.2253 69.9061 53.8012 62.6508C53.647 60.0352 55.0865 58.1395 57.702 57.4518C60.4461 56.7256 62.5925 57.8117 63.9742 60.1509C66.519 64.463 68.8196 68.9229 71.448 73.1772C72.1035 74.2375 73.6266 75.3107 74.8476 75.5742C80.2779 76.7502 85.7853 77.5664 91.222 78.7038C92.2759 78.9223 93.1499 79.9763 94.1074 80.651C94.1139 80.6575 94.1139 80.6703 94.1074 80.6768ZM75.4581 25.7441C75.5095 25.7698 75.5352 25.7826 75.5416 25.7826C75.5288 25.7634 75.4902 25.7505 75.4581 25.7441Z" fill="#BB86FC"/>
<path d="M16.7984 16.8821C20.3072 12.917 30.6408 12.6407 34.0211 16.1816C34.0275 16.1881 34.0275 16.2009 34.0211 16.2073C31.2063 19.0928 22.1644 19.4976 16.8048 16.9078C16.792 16.9014 16.792 16.8885 16.7984 16.8821Z" fill="#BB86FC"/>
<path d="M63.5442 75.0729C63.5377 75.06 63.5184 75.0665 63.5184 75.0793C63.4285 77.0843 63.4927 78.2668 63.2935 79.4043C62.9658 81.3129 63.7948 82.2961 65.4464 83.138C71.063 86.0041 76.6411 88.9474 82.1614 92C83.6651 92.829 86.5185 93.2917 85.2332 95.92C84.0186 98.407 81.7694 96.7233 80.1306 96.1321C72.8881 93.523 65.6649 90.8625 58.5444 87.9513C57.2399 87.4179 55.6911 85.7021 55.5433 84.3911C54.7272 77.1743 54.2259 69.9125 53.8018 62.6571C53.6475 60.0416 55.087 58.1458 57.7026 57.4582C60.4466 56.732 62.5931 57.8181 63.9747 60.1573C66.5196 64.4694 68.8202 68.9293 71.4486 73.1835C72.1041 74.2439 73.6271 75.3171 74.8417 75.5806C80.272 76.7566 85.7794 77.5727 91.2226 78.7102C92.2701 78.9287 93.1505 79.9826 94.108 80.6574C94.1144 80.6638 94.1144 80.6767 94.108 80.6831C93.0348 81.3257 91.9616 82.521 90.9012 82.5082C84.0636 82.4054 77.2195 82.1226 70.3947 81.6728C69.1994 81.5956 67.8755 80.6381 66.963 79.7384C65.7934 78.5753 64.9708 77.0651 63.5442 75.0729Z" fill="white"/>
<path d="M63.9296 43.2367C63.6147 40.4155 63.3448 38.0121 63.0234 35.1073C63.0234 35.1009 63.0299 35.0945 63.0363 35.0881C68.0617 33.475 75.0022 33.7514 75.4649 25.7441C75.6256 25.8276 75.5356 25.7505 75.4392 25.7377C71.095 25.2107 68.8714 23.3278 68.608 19.9282C68.3638 16.8564 70.5166 13.971 73.5434 13.3155C76.8594 12.5957 78.8837 14.3694 81.0237 18.2381C82.4954 20.8986 82.1162 23.0129 81.0816 25.4292C80.5353 26.7081 79.912 28.0062 79.6999 29.3557C78.2732 38.3269 70.6644 39.9978 63.9553 43.256C63.9424 43.2495 63.9296 43.2431 63.9296 43.2367Z" fill="white"/>
<path d="M52.3686 37.3693C52.3686 37.3693 52.3751 37.3629 52.3815 37.3629C56.5779 37.3243 59.187 40.6211 57.7604 43.3394C54.0909 50.3377 51.1091 58.0044 42.7034 61.1276C39.4195 62.3486 36.3927 64.2573 33.1216 65.5297C32.1255 65.9217 30.7246 65.2662 29.5036 65.0863C29.4907 65.0863 29.4907 65.0734 29.4907 65.067C30.0177 64.0388 30.2876 62.6507 31.1166 62.0594C34.5868 59.5853 38.3141 57.471 41.7651 54.9776C43.2046 53.9365 44.3614 52.5484 45.1068 50.9354C46.617 47.6644 47.5424 44.1106 49.1297 40.8781C49.9137 39.2715 51.636 38.1276 52.3686 37.3693Z" fill="white"/>
<path d="M57.2911 22.6787C60.2729 22.7494 62.9848 25.6027 62.9141 28.6038C62.837 31.7784 60.2922 34.2012 57.0854 34.1433C53.8979 34.0855 51.3338 31.4957 51.4045 28.3917C51.4688 25.4934 54.4378 22.6144 57.2911 22.6787Z" fill="white"/>
</g>
<defs>
<clipPath id="clip0">
<rect width="114.91" height="115" fill="white"/>
</clipPath>
</defs>
</svg>
