<svg width="116" height="115" viewBox="0 0 116 115" fill="none" xmlns="http://www.w3.org/2000/svg">
<g clip-path="url(#clip0)">
<path d="M72.4155 66.3274C69.4452 61.5095 66.3659 56.7558 63.1775 52.0791C59.9955 47.4024 56.3517 46.9212 52.201 50.6357C40.1852 61.3876 28.2079 72.1909 16.314 83.0841C15.4864 83.8411 15.5185 85.5411 15.1528 86.7985C16.4936 86.7921 18.1295 87.2796 19.1239 86.6959C23.1591 84.303 27.3418 81.9678 30.8446 78.9013C37.3561 73.211 44.8363 72.2679 52.9131 73.0891C53.6572 73.1661 54.4014 73.1981 54.8569 73.2302C59.6427 73.2302 64.1334 73.2623 68.6241 73.2174C73.4612 73.1725 74.9816 70.5037 72.4155 66.3274ZM50.3085 67.0395C53.7278 61.9137 56.9419 61.5801 60.3291 66.2312C56.7686 66.5199 53.6316 66.7701 50.3085 67.0395Z" fill="white"/>
<path d="M85.7914 49.9172C89.8715 48.2108 93.5539 46.5813 97.3197 45.1763C98.1921 44.8556 99.3597 45.3239 100.386 45.4329C99.9435 46.4722 99.7895 47.967 99.0005 48.4802C94.6381 51.335 90.1282 53.9717 85.6439 56.634C83.5589 57.8721 81.6985 57.4808 80.4219 55.4023C77.7467 51.0527 75.0202 46.7224 72.5888 42.2381C70.9722 39.2486 72.3258 35.8357 75.1293 34.7836C78.0931 33.6738 81.166 35.1044 82.2759 38.3569C83.514 41.9751 84.5148 45.6639 85.7914 49.9172Z" fill="white"/>
<path d="M75.604 32.1019C73.7628 33.045 72.5054 33.5967 71.3442 34.3088C70.1702 35.0337 69.1053 35.919 68.0083 36.7209C67.7645 36.6888 67.4438 36.7338 67.3732 36.6183C64.7622 32.4933 61.4198 32.968 57.5899 34.7707C54.9083 36.0281 52.0151 36.9005 49.1474 37.6768C48.2236 37.927 47.0753 37.3111 46.0232 37.093C46.6006 36.2526 46.9919 35.0658 47.7938 34.6231C52.3551 32.0955 57.0446 29.8053 61.6187 27.3033C63.5304 26.2576 65.1728 26.3667 67.0011 27.4316C69.6442 28.9713 72.3771 30.3634 75.604 32.1019Z" fill="white"/>
<path d="M89.153 23.7686C92.4697 23.852 95.2282 26.7261 95.1705 30.0171C95.1064 33.3723 92.3478 36.0603 88.9669 36.0667C85.4706 36.0731 82.7249 33.2119 82.834 29.6771C82.9302 26.3668 85.8042 23.6852 89.153 23.7686Z" fill="white"/>
<path d="M57.628 3.32323e-05C27.5917 -0.0320431 0.147201 23.1591 -0.000349957 57.2947C-0.147901 90.2884 25.7826 114.622 57.2302 114.994C88.8575 115.366 115.019 89.2299 115.064 57.5321C115.115 25.9818 89.2616 0.0834316 57.628 3.32323e-05ZM89.1526 23.7686C92.4693 23.8584 95.2342 26.726 95.1701 30.017C95.1124 33.3722 92.3474 36.0666 88.9665 36.0666C85.4702 36.0731 82.7245 33.2118 82.8335 29.677C82.9298 26.3668 85.8038 23.6852 89.1526 23.7686ZM47.7934 34.6232C52.3482 32.0956 57.0442 29.8053 61.6183 27.3034C63.5236 26.2641 65.1723 26.3668 67.0007 27.4317C69.6438 28.9714 72.3766 30.3635 75.6035 32.102C73.7623 33.0451 72.4985 33.5968 71.3438 34.3153C70.1698 35.0402 69.0985 35.9255 68.0079 36.7274C67.7641 36.6953 67.4433 36.7402 67.3727 36.6248C64.7553 32.4998 61.4194 32.9745 57.5831 34.7772C54.9015 36.0346 52.0082 36.907 49.1406 37.6833C48.2168 37.9271 47.0684 37.3112 46.0163 37.0931C46.6001 36.2527 46.9915 35.0659 47.7934 34.6232ZM68.6237 73.2174C64.133 73.2623 59.6424 73.2303 54.8566 73.2303C54.4011 73.1982 53.6569 73.1661 52.9127 73.0891C44.8359 72.268 37.3557 73.211 30.8442 78.9014C27.3415 81.9678 23.1588 84.303 19.1236 86.6959C18.1292 87.2797 16.4933 86.7921 15.1525 86.7985C15.5182 85.5411 15.4861 83.8411 16.3137 83.0841C28.2076 72.191 40.1849 61.3877 52.2006 50.6357C56.3513 46.9213 59.9952 47.4024 63.1772 52.0791C66.3656 56.7559 69.4449 61.5096 72.4151 66.3274C74.9812 70.5038 73.4608 73.1725 68.6237 73.2174ZM99.0064 48.4802C94.6376 51.335 90.1341 53.9781 85.6434 56.6404C83.5649 57.8721 81.7044 57.4808 80.4278 55.4087C77.7526 51.0591 75.0197 46.7288 72.5948 42.2445C70.9717 39.2486 72.3317 35.8421 75.1352 34.79C78.0991 33.6802 81.172 35.1108 82.2818 38.3633C83.5135 41.9751 84.5143 45.6639 85.791 49.9172C89.8775 48.2107 93.5534 46.5748 97.3256 45.1763C98.1917 44.8491 99.3593 45.3239 100.392 45.4329C99.943 46.4722 99.7955 47.967 99.0064 48.4802Z" fill="#BB86FC"/>
<path d="M60.3292 66.2312C56.7688 66.5199 53.6317 66.7701 50.3086 67.0395C53.7279 61.9137 56.942 61.5801 60.3292 66.2312Z" fill="#BB86FC"/>
</g>
<defs>
<clipPath id="clip0">
<rect width="115.064" height="115" fill="white"/>
</clipPath>
</defs>
</svg>
